<mxfile host="app.diagrams.net" modified="2020-10-22T03:43:11.414Z" agent="5.0 (Macintosh; Intel Mac OS X 10_15_7) AppleWebKit/537.36 (KHTML, like Gecko) Chrome/86.0.4240.80 Safari/537.36" etag="BXThuSg5O0NqR5KeSjkv" version="13.8.1" type="github">
  <diagram name="Page-1" id="e7e014a7-5840-1c2e-5031-d8a46d1fe8dd">
    <mxGraphModel dx="2520" dy="656" grid="1" gridSize="10" guides="1" tooltips="1" connect="1" arrows="1" fold="1" page="1" pageScale="1" pageWidth="1169" pageHeight="826" background="#ffffff" math="0" shadow="0">
      <root>
        <mxCell id="0" />
        <mxCell id="1" parent="0" />
        <mxCell id="3Bn1OTM1BXKK-3qI_rWQ-162" value="信息获取" style="endArrow=classic;html=1;exitX=0.49;exitY=0.967;exitDx=0;exitDy=0;exitPerimeter=0;entryX=1;entryY=1.165;entryDx=0;entryDy=0;entryPerimeter=0;" edge="1" parent="1" source="3Bn1OTM1BXKK-3qI_rWQ-60" target="3Bn1OTM1BXKK-3qI_rWQ-151">
          <mxGeometry width="50" height="50" relative="1" as="geometry">
            <mxPoint x="330" y="410" as="sourcePoint" />
            <mxPoint x="380" y="360" as="targetPoint" />
            <Array as="points">
              <mxPoint x="359" y="478" />
            </Array>
          </mxGeometry>
        </mxCell>
        <mxCell id="3Bn1OTM1BXKK-3qI_rWQ-175" value="管理客户" style="endArrow=classic;html=1;exitX=0.439;exitY=1.022;exitDx=0;exitDy=0;exitPerimeter=0;" edge="1" parent="1" source="3Bn1OTM1BXKK-3qI_rWQ-58">
          <mxGeometry width="50" height="50" relative="1" as="geometry">
            <mxPoint x="-330" y="290" as="sourcePoint" />
            <mxPoint x="-330" y="370" as="targetPoint" />
            <Array as="points">
              <mxPoint x="121" y="260" />
              <mxPoint x="-330" y="260" />
            </Array>
          </mxGeometry>
        </mxCell>
        <mxCell id="3Bn1OTM1BXKK-3qI_rWQ-121" value="" style="shape=partialRectangle;whiteSpace=wrap;html=1;bottom=1;right=1;left=1;top=0;fillColor=none;routingCenterX=-0.5;rotation=-90;" vertex="1" parent="1">
          <mxGeometry x="287" y="693" width="267" height="43" as="geometry" />
        </mxCell>
        <mxCell id="3Bn1OTM1BXKK-3qI_rWQ-53" value="User" style="swimlane;fontStyle=0;childLayout=stackLayout;horizontal=1;startSize=26;fillColor=none;horizontalStack=0;resizeParent=1;resizeParentMax=0;resizeLast=0;collapsible=1;marginBottom=0;" vertex="1" parent="1">
          <mxGeometry x="290" y="20" width="140" height="52" as="geometry" />
        </mxCell>
        <mxCell id="3Bn1OTM1BXKK-3qI_rWQ-54" value="+ 用户名&#xa;&#xa;" style="text;strokeColor=none;fillColor=none;align=left;verticalAlign=top;spacingLeft=4;spacingRight=4;overflow=hidden;rotatable=0;points=[[0,0.5],[1,0.5]];portConstraint=eastwest;" vertex="1" parent="3Bn1OTM1BXKK-3qI_rWQ-53">
          <mxGeometry y="26" width="140" height="26" as="geometry" />
        </mxCell>
        <mxCell id="3Bn1OTM1BXKK-3qI_rWQ-57" value="Seller" style="swimlane;fontStyle=0;childLayout=stackLayout;horizontal=1;startSize=26;fillColor=none;horizontalStack=0;resizeParent=1;resizeParentMax=0;resizeLast=0;collapsible=1;marginBottom=0;" vertex="1" parent="1">
          <mxGeometry x="60" y="140" width="140" height="52" as="geometry" />
        </mxCell>
        <mxCell id="3Bn1OTM1BXKK-3qI_rWQ-58" value="+ " style="text;strokeColor=none;fillColor=none;align=left;verticalAlign=top;spacingLeft=4;spacingRight=4;overflow=hidden;rotatable=0;points=[[0,0.5],[1,0.5]];portConstraint=eastwest;" vertex="1" parent="3Bn1OTM1BXKK-3qI_rWQ-57">
          <mxGeometry y="26" width="140" height="26" as="geometry" />
        </mxCell>
        <mxCell id="3Bn1OTM1BXKK-3qI_rWQ-59" value="Purveyor" style="swimlane;fontStyle=0;childLayout=stackLayout;horizontal=1;startSize=26;fillColor=none;horizontalStack=0;resizeParent=1;resizeParentMax=0;resizeLast=0;collapsible=1;marginBottom=0;" vertex="1" parent="1">
          <mxGeometry x="290" y="140" width="140" height="52" as="geometry" />
        </mxCell>
        <mxCell id="3Bn1OTM1BXKK-3qI_rWQ-60" value="+ 供货商品&#xa;&#xa;" style="text;strokeColor=none;fillColor=none;align=left;verticalAlign=top;spacingLeft=4;spacingRight=4;overflow=hidden;rotatable=0;points=[[0,0.5],[1,0.5]];portConstraint=eastwest;" vertex="1" parent="3Bn1OTM1BXKK-3qI_rWQ-59">
          <mxGeometry y="26" width="140" height="26" as="geometry" />
        </mxCell>
        <mxCell id="3Bn1OTM1BXKK-3qI_rWQ-61" value="Buyer" style="swimlane;fontStyle=0;childLayout=stackLayout;horizontal=1;startSize=26;fillColor=none;horizontalStack=0;resizeParent=1;resizeParentMax=0;resizeLast=0;collapsible=1;marginBottom=0;" vertex="1" parent="1">
          <mxGeometry x="500" y="140" width="140" height="52" as="geometry" />
        </mxCell>
        <mxCell id="3Bn1OTM1BXKK-3qI_rWQ-62" value="+ 卖家类别&#xa;&#xa;" style="text;strokeColor=none;fillColor=none;align=left;verticalAlign=top;spacingLeft=4;spacingRight=4;overflow=hidden;rotatable=0;points=[[0,0.5],[1,0.5]];portConstraint=eastwest;" vertex="1" parent="3Bn1OTM1BXKK-3qI_rWQ-61">
          <mxGeometry y="26" width="140" height="26" as="geometry" />
        </mxCell>
        <mxCell id="3Bn1OTM1BXKK-3qI_rWQ-95" value="Goods" style="swimlane;fontStyle=0;childLayout=stackLayout;horizontal=1;startSize=26;fillColor=none;horizontalStack=0;resizeParent=1;resizeParentMax=0;resizeLast=0;collapsible=1;marginBottom=0;" vertex="1" parent="1">
          <mxGeometry x="500" y="370" width="140" height="104" as="geometry" />
        </mxCell>
        <mxCell id="3Bn1OTM1BXKK-3qI_rWQ-96" value="+ 实体虚拟商品类别" style="text;strokeColor=none;fillColor=none;align=left;verticalAlign=top;spacingLeft=4;spacingRight=4;overflow=hidden;rotatable=0;points=[[0,0.5],[1,0.5]];portConstraint=eastwest;" vertex="1" parent="3Bn1OTM1BXKK-3qI_rWQ-95">
          <mxGeometry y="26" width="140" height="26" as="geometry" />
        </mxCell>
        <mxCell id="3Bn1OTM1BXKK-3qI_rWQ-97" value="+ 单件多件套装商品类别" style="text;strokeColor=none;fillColor=none;align=left;verticalAlign=top;spacingLeft=4;spacingRight=4;overflow=hidden;rotatable=0;points=[[0,0.5],[1,0.5]];portConstraint=eastwest;" vertex="1" parent="3Bn1OTM1BXKK-3qI_rWQ-95">
          <mxGeometry y="52" width="140" height="26" as="geometry" />
        </mxCell>
        <mxCell id="3Bn1OTM1BXKK-3qI_rWQ-98" value="+ 是否可供租赁" style="text;strokeColor=none;fillColor=none;align=left;verticalAlign=top;spacingLeft=4;spacingRight=4;overflow=hidden;rotatable=0;points=[[0,0.5],[1,0.5]];portConstraint=eastwest;" vertex="1" parent="3Bn1OTM1BXKK-3qI_rWQ-95">
          <mxGeometry y="78" width="140" height="26" as="geometry" />
        </mxCell>
        <mxCell id="3Bn1OTM1BXKK-3qI_rWQ-111" value="ShoppingCart" style="swimlane;fontStyle=0;childLayout=stackLayout;horizontal=1;startSize=26;fillColor=none;horizontalStack=0;resizeParent=1;resizeParentMax=0;resizeLast=0;collapsible=1;marginBottom=0;" vertex="1" parent="1">
          <mxGeometry x="710" y="370" width="140" height="156" as="geometry" />
        </mxCell>
        <mxCell id="3Bn1OTM1BXKK-3qI_rWQ-112" value="+ 创建时间" style="text;strokeColor=none;fillColor=none;align=left;verticalAlign=top;spacingLeft=4;spacingRight=4;overflow=hidden;rotatable=0;points=[[0,0.5],[1,0.5]];portConstraint=eastwest;" vertex="1" parent="3Bn1OTM1BXKK-3qI_rWQ-111">
          <mxGeometry y="26" width="140" height="26" as="geometry" />
        </mxCell>
        <mxCell id="3Bn1OTM1BXKK-3qI_rWQ-113" value="+ 修改时间" style="text;strokeColor=none;fillColor=none;align=left;verticalAlign=top;spacingLeft=4;spacingRight=4;overflow=hidden;rotatable=0;points=[[0,0.5],[1,0.5]];portConstraint=eastwest;" vertex="1" parent="3Bn1OTM1BXKK-3qI_rWQ-111">
          <mxGeometry y="52" width="140" height="26" as="geometry" />
        </mxCell>
        <mxCell id="3Bn1OTM1BXKK-3qI_rWQ-114" value="+ 总金额" style="text;strokeColor=none;fillColor=none;align=left;verticalAlign=top;spacingLeft=4;spacingRight=4;overflow=hidden;rotatable=0;points=[[0,0.5],[1,0.5]];portConstraint=eastwest;" vertex="1" parent="3Bn1OTM1BXKK-3qI_rWQ-111">
          <mxGeometry y="78" width="140" height="26" as="geometry" />
        </mxCell>
        <mxCell id="3Bn1OTM1BXKK-3qI_rWQ-115" value="+ 配送地址" style="text;strokeColor=none;fillColor=none;align=left;verticalAlign=top;spacingLeft=4;spacingRight=4;overflow=hidden;rotatable=0;points=[[0,0.5],[1,0.5]];portConstraint=eastwest;" vertex="1" parent="3Bn1OTM1BXKK-3qI_rWQ-111">
          <mxGeometry y="104" width="140" height="26" as="geometry" />
        </mxCell>
        <mxCell id="3Bn1OTM1BXKK-3qI_rWQ-116" value="+ 商品信息" style="text;strokeColor=none;fillColor=none;align=left;verticalAlign=top;spacingLeft=4;spacingRight=4;overflow=hidden;rotatable=0;points=[[0,0.5],[1,0.5]];portConstraint=eastwest;" vertex="1" parent="3Bn1OTM1BXKK-3qI_rWQ-111">
          <mxGeometry y="130" width="140" height="26" as="geometry" />
        </mxCell>
        <mxCell id="3Bn1OTM1BXKK-3qI_rWQ-117" value="Extends" style="endArrow=block;endSize=16;endFill=0;html=1;entryX=0.493;entryY=1;entryDx=0;entryDy=0;entryPerimeter=0;exitX=0.5;exitY=0;exitDx=0;exitDy=0;" edge="1" parent="1" source="3Bn1OTM1BXKK-3qI_rWQ-59" target="3Bn1OTM1BXKK-3qI_rWQ-54">
          <mxGeometry width="160" relative="1" as="geometry">
            <mxPoint x="290" y="100" as="sourcePoint" />
            <mxPoint x="450" y="100" as="targetPoint" />
          </mxGeometry>
        </mxCell>
        <mxCell id="3Bn1OTM1BXKK-3qI_rWQ-118" value="" style="shape=partialRectangle;whiteSpace=wrap;html=1;bottom=1;right=1;left=1;top=0;fillColor=none;routingCenterX=-0.5;rotation=-180;" vertex="1" parent="1">
          <mxGeometry x="120" y="110" width="460" height="30" as="geometry" />
        </mxCell>
        <mxCell id="3Bn1OTM1BXKK-3qI_rWQ-119" value="Extends" style="endArrow=block;endSize=16;endFill=0;html=1;exitX=0.5;exitY=0;exitDx=0;exitDy=0;" edge="1" parent="1" source="3Bn1OTM1BXKK-3qI_rWQ-72" target="3Bn1OTM1BXKK-3qI_rWQ-98">
          <mxGeometry width="160" relative="1" as="geometry">
            <mxPoint x="370" y="150" as="sourcePoint" />
            <mxPoint x="369.02" y="82" as="targetPoint" />
          </mxGeometry>
        </mxCell>
        <mxCell id="3Bn1OTM1BXKK-3qI_rWQ-120" value="Extends" style="endArrow=block;endSize=16;endFill=0;html=1;entryX=0;entryY=0.5;entryDx=0;entryDy=0;exitX=1;exitY=0.231;exitDx=0;exitDy=0;exitPerimeter=0;" edge="1" parent="1" source="3Bn1OTM1BXKK-3qI_rWQ-105" target="3Bn1OTM1BXKK-3qI_rWQ-84">
          <mxGeometry width="160" relative="1" as="geometry">
            <mxPoint x="210" y="535.5" as="sourcePoint" />
            <mxPoint x="280" y="535.5" as="targetPoint" />
          </mxGeometry>
        </mxCell>
        <mxCell id="3Bn1OTM1BXKK-3qI_rWQ-123" value="" style="endArrow=classic;html=1;exitX=1;exitY=0.5;exitDx=0;exitDy=0;entryX=0;entryY=0.5;entryDx=0;entryDy=0;" edge="1" parent="1" source="3Bn1OTM1BXKK-3qI_rWQ-97" target="3Bn1OTM1BXKK-3qI_rWQ-113">
          <mxGeometry width="50" height="50" relative="1" as="geometry">
            <mxPoint x="650" y="450" as="sourcePoint" />
            <mxPoint x="700" y="400" as="targetPoint" />
          </mxGeometry>
        </mxCell>
        <mxCell id="3Bn1OTM1BXKK-3qI_rWQ-125" value="购买商品" style="endArrow=classic;html=1;entryX=0.5;entryY=0;entryDx=0;entryDy=0;" edge="1" parent="1" target="3Bn1OTM1BXKK-3qI_rWQ-111">
          <mxGeometry width="50" height="50" relative="1" as="geometry">
            <mxPoint x="570" y="194" as="sourcePoint" />
            <mxPoint x="720" y="445" as="targetPoint" />
            <Array as="points">
              <mxPoint x="570" y="260" />
              <mxPoint x="780" y="260" />
            </Array>
          </mxGeometry>
        </mxCell>
        <mxCell id="3Bn1OTM1BXKK-3qI_rWQ-126" value="浏览，搜索" style="endArrow=classic;html=1;" edge="1" parent="1">
          <mxGeometry width="50" height="50" relative="1" as="geometry">
            <mxPoint x="571" y="190" as="sourcePoint" />
            <mxPoint x="571" y="370" as="targetPoint" />
          </mxGeometry>
        </mxCell>
        <mxCell id="3Bn1OTM1BXKK-3qI_rWQ-127" value="管理商品" style="endArrow=classic;html=1;" edge="1" parent="1" target="3Bn1OTM1BXKK-3qI_rWQ-95">
          <mxGeometry width="50" height="50" relative="1" as="geometry">
            <mxPoint x="120" y="190" as="sourcePoint" />
            <mxPoint x="220" y="240" as="targetPoint" />
            <Array as="points">
              <mxPoint x="120" y="260" />
              <mxPoint x="570" y="260" />
            </Array>
          </mxGeometry>
        </mxCell>
        <mxCell id="3Bn1OTM1BXKK-3qI_rWQ-132" value="创建，管理" style="endArrow=classic;html=1;entryX=0.5;entryY=0;entryDx=0;entryDy=0;" edge="1" parent="1" target="3Bn1OTM1BXKK-3qI_rWQ-163">
          <mxGeometry width="50" height="50" relative="1" as="geometry">
            <mxPoint x="120" y="190" as="sourcePoint" />
            <mxPoint x="-70" y="220" as="targetPoint" />
            <Array as="points">
              <mxPoint x="120" y="260" />
              <mxPoint x="-110" y="260" />
            </Array>
          </mxGeometry>
        </mxCell>
        <mxCell id="3Bn1OTM1BXKK-3qI_rWQ-138" value="Extends" style="endArrow=block;endSize=16;endFill=0;html=1;" edge="1" parent="1">
          <mxGeometry width="160" relative="1" as="geometry">
            <mxPoint x="-120" y="624.5" as="sourcePoint" />
            <mxPoint x="-120" y="561.5" as="targetPoint" />
          </mxGeometry>
        </mxCell>
        <mxCell id="3Bn1OTM1BXKK-3qI_rWQ-72" value="GoodsDetail" style="swimlane;fontStyle=0;childLayout=stackLayout;horizontal=1;startSize=26;fillColor=none;horizontalStack=0;resizeParent=1;resizeParentMax=0;resizeLast=0;collapsible=1;marginBottom=0;" vertex="1" parent="1">
          <mxGeometry x="500" y="540" width="140" height="390" as="geometry" />
        </mxCell>
        <mxCell id="3Bn1OTM1BXKK-3qI_rWQ-73" value="+ 名字" style="text;strokeColor=none;fillColor=none;align=left;verticalAlign=top;spacingLeft=4;spacingRight=4;overflow=hidden;rotatable=0;points=[[0,0.5],[1,0.5]];portConstraint=eastwest;" vertex="1" parent="3Bn1OTM1BXKK-3qI_rWQ-72">
          <mxGeometry y="26" width="140" height="26" as="geometry" />
        </mxCell>
        <mxCell id="3Bn1OTM1BXKK-3qI_rWQ-74" value="+ 描述" style="text;strokeColor=none;fillColor=none;align=left;verticalAlign=top;spacingLeft=4;spacingRight=4;overflow=hidden;rotatable=0;points=[[0,0.5],[1,0.5]];portConstraint=eastwest;" vertex="1" parent="3Bn1OTM1BXKK-3qI_rWQ-72">
          <mxGeometry y="52" width="140" height="26" as="geometry" />
        </mxCell>
        <mxCell id="3Bn1OTM1BXKK-3qI_rWQ-75" value="+ 类别" style="text;strokeColor=none;fillColor=none;align=left;verticalAlign=top;spacingLeft=4;spacingRight=4;overflow=hidden;rotatable=0;points=[[0,0.5],[1,0.5]];portConstraint=eastwest;" vertex="1" parent="3Bn1OTM1BXKK-3qI_rWQ-72">
          <mxGeometry y="78" width="140" height="26" as="geometry" />
        </mxCell>
        <mxCell id="3Bn1OTM1BXKK-3qI_rWQ-82" value="+ 图片" style="text;strokeColor=none;fillColor=none;align=left;verticalAlign=top;spacingLeft=4;spacingRight=4;overflow=hidden;rotatable=0;points=[[0,0.5],[1,0.5]];portConstraint=eastwest;" vertex="1" parent="3Bn1OTM1BXKK-3qI_rWQ-72">
          <mxGeometry y="104" width="140" height="26" as="geometry" />
        </mxCell>
        <mxCell id="3Bn1OTM1BXKK-3qI_rWQ-83" value="+ 价格" style="text;strokeColor=none;fillColor=none;align=left;verticalAlign=top;spacingLeft=4;spacingRight=4;overflow=hidden;rotatable=0;points=[[0,0.5],[1,0.5]];portConstraint=eastwest;" vertex="1" parent="3Bn1OTM1BXKK-3qI_rWQ-72">
          <mxGeometry y="130" width="140" height="26" as="geometry" />
        </mxCell>
        <mxCell id="3Bn1OTM1BXKK-3qI_rWQ-84" value="+ 折扣" style="text;strokeColor=none;fillColor=none;align=left;verticalAlign=top;spacingLeft=4;spacingRight=4;overflow=hidden;rotatable=0;points=[[0,0.5],[1,0.5]];portConstraint=eastwest;" vertex="1" parent="3Bn1OTM1BXKK-3qI_rWQ-72">
          <mxGeometry y="156" width="140" height="26" as="geometry" />
        </mxCell>
        <mxCell id="3Bn1OTM1BXKK-3qI_rWQ-87" value="+ 剩余件数" style="text;strokeColor=none;fillColor=none;align=left;verticalAlign=top;spacingLeft=4;spacingRight=4;overflow=hidden;rotatable=0;points=[[0,0.5],[1,0.5]];portConstraint=eastwest;" vertex="1" parent="3Bn1OTM1BXKK-3qI_rWQ-72">
          <mxGeometry y="182" width="140" height="26" as="geometry" />
        </mxCell>
        <mxCell id="3Bn1OTM1BXKK-3qI_rWQ-88" value="+ 制造商" style="text;strokeColor=none;fillColor=none;align=left;verticalAlign=top;spacingLeft=4;spacingRight=4;overflow=hidden;rotatable=0;points=[[0,0.5],[1,0.5]];portConstraint=eastwest;" vertex="1" parent="3Bn1OTM1BXKK-3qI_rWQ-72">
          <mxGeometry y="208" width="140" height="26" as="geometry" />
        </mxCell>
        <mxCell id="3Bn1OTM1BXKK-3qI_rWQ-89" value="+ 是否需与其他商品配套" style="text;strokeColor=none;fillColor=none;align=left;verticalAlign=top;spacingLeft=4;spacingRight=4;overflow=hidden;rotatable=0;points=[[0,0.5],[1,0.5]];portConstraint=eastwest;" vertex="1" parent="3Bn1OTM1BXKK-3qI_rWQ-72">
          <mxGeometry y="234" width="140" height="26" as="geometry" />
        </mxCell>
        <mxCell id="3Bn1OTM1BXKK-3qI_rWQ-90" value="+ 配套商品" style="text;strokeColor=none;fillColor=none;align=left;verticalAlign=top;spacingLeft=4;spacingRight=4;overflow=hidden;rotatable=0;points=[[0,0.5],[1,0.5]];portConstraint=eastwest;" vertex="1" parent="3Bn1OTM1BXKK-3qI_rWQ-72">
          <mxGeometry y="260" width="140" height="26" as="geometry" />
        </mxCell>
        <mxCell id="3Bn1OTM1BXKK-3qI_rWQ-91" value="+ 长宽高重" style="text;strokeColor=none;fillColor=none;align=left;verticalAlign=top;spacingLeft=4;spacingRight=4;overflow=hidden;rotatable=0;points=[[0,0.5],[1,0.5]];portConstraint=eastwest;" vertex="1" parent="3Bn1OTM1BXKK-3qI_rWQ-72">
          <mxGeometry y="286" width="140" height="26" as="geometry" />
        </mxCell>
        <mxCell id="3Bn1OTM1BXKK-3qI_rWQ-92" value="+ 是否上架" style="text;strokeColor=none;fillColor=none;align=left;verticalAlign=top;spacingLeft=4;spacingRight=4;overflow=hidden;rotatable=0;points=[[0,0.5],[1,0.5]];portConstraint=eastwest;" vertex="1" parent="3Bn1OTM1BXKK-3qI_rWQ-72">
          <mxGeometry y="312" width="140" height="26" as="geometry" />
        </mxCell>
        <mxCell id="3Bn1OTM1BXKK-3qI_rWQ-93" value="+ 上架时间" style="text;strokeColor=none;fillColor=none;align=left;verticalAlign=top;spacingLeft=4;spacingRight=4;overflow=hidden;rotatable=0;points=[[0,0.5],[1,0.5]];portConstraint=eastwest;" vertex="1" parent="3Bn1OTM1BXKK-3qI_rWQ-72">
          <mxGeometry y="338" width="140" height="26" as="geometry" />
        </mxCell>
        <mxCell id="3Bn1OTM1BXKK-3qI_rWQ-94" value="+ 下架时间" style="text;strokeColor=none;fillColor=none;align=left;verticalAlign=top;spacingLeft=4;spacingRight=4;overflow=hidden;rotatable=0;points=[[0,0.5],[1,0.5]];portConstraint=eastwest;" vertex="1" parent="3Bn1OTM1BXKK-3qI_rWQ-72">
          <mxGeometry y="364" width="140" height="26" as="geometry" />
        </mxCell>
        <mxCell id="3Bn1OTM1BXKK-3qI_rWQ-99" value="GoodsDetailAirCon" style="swimlane;fontStyle=0;childLayout=stackLayout;horizontal=1;startSize=26;fillColor=none;horizontalStack=0;resizeParent=1;resizeParentMax=0;resizeLast=0;collapsible=1;marginBottom=0;" vertex="1" parent="1">
          <mxGeometry x="260" y="540" width="140" height="78" as="geometry" />
        </mxCell>
        <mxCell id="3Bn1OTM1BXKK-3qI_rWQ-100" value="+ 功率" style="text;strokeColor=none;fillColor=none;align=left;verticalAlign=top;spacingLeft=4;spacingRight=4;overflow=hidden;rotatable=0;points=[[0,0.5],[1,0.5]];portConstraint=eastwest;" vertex="1" parent="3Bn1OTM1BXKK-3qI_rWQ-99">
          <mxGeometry y="26" width="140" height="26" as="geometry" />
        </mxCell>
        <mxCell id="3Bn1OTM1BXKK-3qI_rWQ-101" value="+ 立式挂式" style="text;strokeColor=none;fillColor=none;align=left;verticalAlign=top;spacingLeft=4;spacingRight=4;overflow=hidden;rotatable=0;points=[[0,0.5],[1,0.5]];portConstraint=eastwest;" vertex="1" parent="3Bn1OTM1BXKK-3qI_rWQ-99">
          <mxGeometry y="52" width="140" height="26" as="geometry" />
        </mxCell>
        <mxCell id="3Bn1OTM1BXKK-3qI_rWQ-103" value="GoodsDetailComp" style="swimlane;fontStyle=0;childLayout=stackLayout;horizontal=1;startSize=26;fillColor=none;horizontalStack=0;resizeParent=1;resizeParentMax=0;resizeLast=0;collapsible=1;marginBottom=0;" vertex="1" parent="1">
          <mxGeometry x="260" y="654" width="140" height="104" as="geometry" />
        </mxCell>
        <mxCell id="3Bn1OTM1BXKK-3qI_rWQ-104" value="+ 屏幕尺寸" style="text;strokeColor=none;fillColor=none;align=left;verticalAlign=top;spacingLeft=4;spacingRight=4;overflow=hidden;rotatable=0;points=[[0,0.5],[1,0.5]];portConstraint=eastwest;" vertex="1" parent="3Bn1OTM1BXKK-3qI_rWQ-103">
          <mxGeometry y="26" width="140" height="26" as="geometry" />
        </mxCell>
        <mxCell id="3Bn1OTM1BXKK-3qI_rWQ-105" value="+ 内存" style="text;strokeColor=none;fillColor=none;align=left;verticalAlign=top;spacingLeft=4;spacingRight=4;overflow=hidden;rotatable=0;points=[[0,0.5],[1,0.5]];portConstraint=eastwest;" vertex="1" parent="3Bn1OTM1BXKK-3qI_rWQ-103">
          <mxGeometry y="52" width="140" height="26" as="geometry" />
        </mxCell>
        <mxCell id="3Bn1OTM1BXKK-3qI_rWQ-106" value="+ 硬盘" style="text;strokeColor=none;fillColor=none;align=left;verticalAlign=top;spacingLeft=4;spacingRight=4;overflow=hidden;rotatable=0;points=[[0,0.5],[1,0.5]];portConstraint=eastwest;" vertex="1" parent="3Bn1OTM1BXKK-3qI_rWQ-103">
          <mxGeometry y="78" width="140" height="26" as="geometry" />
        </mxCell>
        <mxCell id="3Bn1OTM1BXKK-3qI_rWQ-107" value="GoodsDetailDesk" style="swimlane;fontStyle=0;childLayout=stackLayout;horizontal=1;startSize=26;fillColor=none;horizontalStack=0;resizeParent=1;resizeParentMax=0;resizeLast=0;collapsible=1;marginBottom=0;" vertex="1" parent="1">
          <mxGeometry x="260" y="800" width="140" height="78" as="geometry" />
        </mxCell>
        <mxCell id="3Bn1OTM1BXKK-3qI_rWQ-108" value="+ 材质" style="text;strokeColor=none;fillColor=none;align=left;verticalAlign=top;spacingLeft=4;spacingRight=4;overflow=hidden;rotatable=0;points=[[0,0.5],[1,0.5]];portConstraint=eastwest;" vertex="1" parent="3Bn1OTM1BXKK-3qI_rWQ-107">
          <mxGeometry y="26" width="140" height="26" as="geometry" />
        </mxCell>
        <mxCell id="3Bn1OTM1BXKK-3qI_rWQ-109" value="+ 是否折叠" style="text;strokeColor=none;fillColor=none;align=left;verticalAlign=top;spacingLeft=4;spacingRight=4;overflow=hidden;rotatable=0;points=[[0,0.5],[1,0.5]];portConstraint=eastwest;" vertex="1" parent="3Bn1OTM1BXKK-3qI_rWQ-107">
          <mxGeometry y="52" width="140" height="26" as="geometry" />
        </mxCell>
        <mxCell id="3Bn1OTM1BXKK-3qI_rWQ-141" value="Picture" style="swimlane;fontStyle=0;childLayout=stackLayout;horizontal=1;startSize=26;fillColor=none;horizontalStack=0;resizeParent=1;resizeParentMax=0;resizeLast=0;collapsible=1;marginBottom=0;" vertex="1" parent="1">
          <mxGeometry x="710" y="583" width="140" height="130" as="geometry" />
        </mxCell>
        <mxCell id="3Bn1OTM1BXKK-3qI_rWQ-142" value="+ 缩略图信息" style="text;strokeColor=none;fillColor=none;align=left;verticalAlign=top;spacingLeft=4;spacingRight=4;overflow=hidden;rotatable=0;points=[[0,0.5],[1,0.5]];portConstraint=eastwest;" vertex="1" parent="3Bn1OTM1BXKK-3qI_rWQ-141">
          <mxGeometry y="26" width="140" height="26" as="geometry" />
        </mxCell>
        <mxCell id="3Bn1OTM1BXKK-3qI_rWQ-143" value="+ 详细图星系" style="text;strokeColor=none;fillColor=none;align=left;verticalAlign=top;spacingLeft=4;spacingRight=4;overflow=hidden;rotatable=0;points=[[0,0.5],[1,0.5]];portConstraint=eastwest;" vertex="1" parent="3Bn1OTM1BXKK-3qI_rWQ-141">
          <mxGeometry y="52" width="140" height="26" as="geometry" />
        </mxCell>
        <mxCell id="3Bn1OTM1BXKK-3qI_rWQ-144" value="+ 图片说明" style="text;strokeColor=none;fillColor=none;align=left;verticalAlign=top;spacingLeft=4;spacingRight=4;overflow=hidden;rotatable=0;points=[[0,0.5],[1,0.5]];portConstraint=eastwest;" vertex="1" parent="3Bn1OTM1BXKK-3qI_rWQ-141">
          <mxGeometry y="78" width="140" height="26" as="geometry" />
        </mxCell>
        <mxCell id="3Bn1OTM1BXKK-3qI_rWQ-145" value="+ 修改历史" style="text;strokeColor=none;fillColor=none;align=left;verticalAlign=top;spacingLeft=4;spacingRight=4;overflow=hidden;rotatable=0;points=[[0,0.5],[1,0.5]];portConstraint=eastwest;" vertex="1" parent="3Bn1OTM1BXKK-3qI_rWQ-141">
          <mxGeometry y="104" width="140" height="26" as="geometry" />
        </mxCell>
        <mxCell id="3Bn1OTM1BXKK-3qI_rWQ-146" value="Extends" style="endArrow=block;endSize=16;endFill=0;html=1;entryX=1;entryY=0.5;entryDx=0;entryDy=0;" edge="1" parent="1" target="3Bn1OTM1BXKK-3qI_rWQ-82">
          <mxGeometry width="160" relative="1" as="geometry">
            <mxPoint x="710" y="654" as="sourcePoint" />
            <mxPoint x="740" y="654" as="targetPoint" />
          </mxGeometry>
        </mxCell>
        <mxCell id="3Bn1OTM1BXKK-3qI_rWQ-161" value="管理订单" style="endArrow=classic;html=1;" edge="1" parent="1" target="3Bn1OTM1BXKK-3qI_rWQ-148">
          <mxGeometry width="50" height="50" relative="1" as="geometry">
            <mxPoint x="120" y="190" as="sourcePoint" />
            <mxPoint x="70" y="300" as="targetPoint" />
          </mxGeometry>
        </mxCell>
        <mxCell id="3Bn1OTM1BXKK-3qI_rWQ-148" value="Order" style="swimlane;fontStyle=0;childLayout=stackLayout;horizontal=1;startSize=26;fillColor=none;horizontalStack=0;resizeParent=1;resizeParentMax=0;resizeLast=0;collapsible=1;marginBottom=0;" vertex="1" parent="1">
          <mxGeometry x="50" y="370" width="140" height="234" as="geometry" />
        </mxCell>
        <mxCell id="3Bn1OTM1BXKK-3qI_rWQ-149" value="+ 创建时间" style="text;strokeColor=none;fillColor=none;align=left;verticalAlign=top;spacingLeft=4;spacingRight=4;overflow=hidden;rotatable=0;points=[[0,0.5],[1,0.5]];portConstraint=eastwest;" vertex="1" parent="3Bn1OTM1BXKK-3qI_rWQ-148">
          <mxGeometry y="26" width="140" height="26" as="geometry" />
        </mxCell>
        <mxCell id="3Bn1OTM1BXKK-3qI_rWQ-150" value="+ 订单编号" style="text;strokeColor=none;fillColor=none;align=left;verticalAlign=top;spacingLeft=4;spacingRight=4;overflow=hidden;rotatable=0;points=[[0,0.5],[1,0.5]];portConstraint=eastwest;" vertex="1" parent="3Bn1OTM1BXKK-3qI_rWQ-148">
          <mxGeometry y="52" width="140" height="26" as="geometry" />
        </mxCell>
        <mxCell id="3Bn1OTM1BXKK-3qI_rWQ-151" value="+ 商品信息" style="text;strokeColor=none;fillColor=none;align=left;verticalAlign=top;spacingLeft=4;spacingRight=4;overflow=hidden;rotatable=0;points=[[0,0.5],[1,0.5]];portConstraint=eastwest;" vertex="1" parent="3Bn1OTM1BXKK-3qI_rWQ-148">
          <mxGeometry y="78" width="140" height="26" as="geometry" />
        </mxCell>
        <mxCell id="3Bn1OTM1BXKK-3qI_rWQ-152" value="+ 支付状态" style="text;strokeColor=none;fillColor=none;align=left;verticalAlign=top;spacingLeft=4;spacingRight=4;overflow=hidden;rotatable=0;points=[[0,0.5],[1,0.5]];portConstraint=eastwest;" vertex="1" parent="3Bn1OTM1BXKK-3qI_rWQ-148">
          <mxGeometry y="104" width="140" height="26" as="geometry" />
        </mxCell>
        <mxCell id="3Bn1OTM1BXKK-3qI_rWQ-153" value="+ 支付方式" style="text;strokeColor=none;fillColor=none;align=left;verticalAlign=top;spacingLeft=4;spacingRight=4;overflow=hidden;rotatable=0;points=[[0,0.5],[1,0.5]];portConstraint=eastwest;" vertex="1" parent="3Bn1OTM1BXKK-3qI_rWQ-148">
          <mxGeometry y="130" width="140" height="26" as="geometry" />
        </mxCell>
        <mxCell id="3Bn1OTM1BXKK-3qI_rWQ-154" value="+ 支付金额" style="text;strokeColor=none;fillColor=none;align=left;verticalAlign=top;spacingLeft=4;spacingRight=4;overflow=hidden;rotatable=0;points=[[0,0.5],[1,0.5]];portConstraint=eastwest;" vertex="1" parent="3Bn1OTM1BXKK-3qI_rWQ-148">
          <mxGeometry y="156" width="140" height="26" as="geometry" />
        </mxCell>
        <mxCell id="3Bn1OTM1BXKK-3qI_rWQ-155" value="+ 收货地址" style="text;strokeColor=none;fillColor=none;align=left;verticalAlign=top;spacingLeft=4;spacingRight=4;overflow=hidden;rotatable=0;points=[[0,0.5],[1,0.5]];portConstraint=eastwest;" vertex="1" parent="3Bn1OTM1BXKK-3qI_rWQ-148">
          <mxGeometry y="182" width="140" height="26" as="geometry" />
        </mxCell>
        <mxCell id="3Bn1OTM1BXKK-3qI_rWQ-156" value="+ 联系方式" style="text;strokeColor=none;fillColor=none;align=left;verticalAlign=top;spacingLeft=4;spacingRight=4;overflow=hidden;rotatable=0;points=[[0,0.5],[1,0.5]];portConstraint=eastwest;" vertex="1" parent="3Bn1OTM1BXKK-3qI_rWQ-148">
          <mxGeometry y="208" width="140" height="26" as="geometry" />
        </mxCell>
        <mxCell id="3Bn1OTM1BXKK-3qI_rWQ-163" value="ShopList" style="swimlane;fontStyle=0;childLayout=stackLayout;horizontal=1;startSize=26;fillColor=none;horizontalStack=0;resizeParent=1;resizeParentMax=0;resizeLast=0;collapsible=1;marginBottom=0;" vertex="1" parent="1">
          <mxGeometry x="-180" y="370" width="140" height="52" as="geometry" />
        </mxCell>
        <mxCell id="3Bn1OTM1BXKK-3qI_rWQ-165" value="+ 商品列表" style="text;strokeColor=none;fillColor=none;align=left;verticalAlign=top;spacingLeft=4;spacingRight=4;overflow=hidden;rotatable=0;points=[[0,0.5],[1,0.5]];portConstraint=eastwest;" vertex="1" parent="3Bn1OTM1BXKK-3qI_rWQ-163">
          <mxGeometry y="26" width="140" height="26" as="geometry" />
        </mxCell>
        <mxCell id="3Bn1OTM1BXKK-3qI_rWQ-168" value="Extends" style="endArrow=block;endSize=16;endFill=0;html=1;entryX=0.5;entryY=1.022;entryDx=0;entryDy=0;entryPerimeter=0;" edge="1" parent="1" source="3Bn1OTM1BXKK-3qI_rWQ-128" target="3Bn1OTM1BXKK-3qI_rWQ-165">
          <mxGeometry width="160" relative="1" as="geometry">
            <mxPoint x="-120" y="485" as="sourcePoint" />
            <mxPoint x="-120" y="422" as="targetPoint" />
          </mxGeometry>
        </mxCell>
        <mxCell id="3Bn1OTM1BXKK-3qI_rWQ-128" value="Shop" style="swimlane;fontStyle=0;childLayout=stackLayout;horizontal=1;startSize=26;fillColor=none;horizontalStack=0;resizeParent=1;resizeParentMax=0;resizeLast=0;collapsible=1;marginBottom=0;" vertex="1" parent="1">
          <mxGeometry x="-180" y="481.5" width="140" height="78" as="geometry" />
        </mxCell>
        <mxCell id="3Bn1OTM1BXKK-3qI_rWQ-130" value="+ 店铺名" style="text;strokeColor=none;fillColor=none;align=left;verticalAlign=top;spacingLeft=4;spacingRight=4;overflow=hidden;rotatable=0;points=[[0,0.5],[1,0.5]];portConstraint=eastwest;" vertex="1" parent="3Bn1OTM1BXKK-3qI_rWQ-128">
          <mxGeometry y="26" width="140" height="26" as="geometry" />
        </mxCell>
        <mxCell id="3Bn1OTM1BXKK-3qI_rWQ-131" value="+ 店铺详情" style="text;strokeColor=none;fillColor=none;align=left;verticalAlign=top;spacingLeft=4;spacingRight=4;overflow=hidden;rotatable=0;points=[[0,0.5],[1,0.5]];portConstraint=eastwest;" vertex="1" parent="3Bn1OTM1BXKK-3qI_rWQ-128">
          <mxGeometry y="52" width="140" height="26" as="geometry" />
        </mxCell>
        <mxCell id="3Bn1OTM1BXKK-3qI_rWQ-134" value="GoodsList" style="swimlane;fontStyle=0;childLayout=stackLayout;horizontal=1;startSize=26;fillColor=none;horizontalStack=0;resizeParent=1;resizeParentMax=0;resizeLast=0;collapsible=1;marginBottom=0;" vertex="1" parent="1">
          <mxGeometry x="-180" y="624.5" width="140" height="52" as="geometry" />
        </mxCell>
        <mxCell id="3Bn1OTM1BXKK-3qI_rWQ-135" value="+ 商品清单" style="text;strokeColor=none;fillColor=none;align=left;verticalAlign=top;spacingLeft=4;spacingRight=4;overflow=hidden;rotatable=0;points=[[0,0.5],[1,0.5]];portConstraint=eastwest;" vertex="1" parent="3Bn1OTM1BXKK-3qI_rWQ-134">
          <mxGeometry y="26" width="140" height="26" as="geometry" />
        </mxCell>
        <mxCell id="3Bn1OTM1BXKK-3qI_rWQ-176" value="BuyList" style="swimlane;fontStyle=0;childLayout=stackLayout;horizontal=1;startSize=26;fillColor=none;horizontalStack=0;resizeParent=1;resizeParentMax=0;resizeLast=0;collapsible=1;marginBottom=0;" vertex="1" parent="1">
          <mxGeometry x="-400" y="372" width="140" height="104" as="geometry" />
        </mxCell>
        <mxCell id="3Bn1OTM1BXKK-3qI_rWQ-177" value="+ 客户信息" style="text;strokeColor=none;fillColor=none;align=left;verticalAlign=top;spacingLeft=4;spacingRight=4;overflow=hidden;rotatable=0;points=[[0,0.5],[1,0.5]];portConstraint=eastwest;" vertex="1" parent="3Bn1OTM1BXKK-3qI_rWQ-176">
          <mxGeometry y="26" width="140" height="26" as="geometry" />
        </mxCell>
        <mxCell id="3Bn1OTM1BXKK-3qI_rWQ-179" value="+ 客户编号" style="text;strokeColor=none;fillColor=none;align=left;verticalAlign=top;spacingLeft=4;spacingRight=4;overflow=hidden;rotatable=0;points=[[0,0.5],[1,0.5]];portConstraint=eastwest;" vertex="1" parent="3Bn1OTM1BXKK-3qI_rWQ-176">
          <mxGeometry y="52" width="140" height="26" as="geometry" />
        </mxCell>
        <mxCell id="3Bn1OTM1BXKK-3qI_rWQ-181" value="+ 联系历史" style="text;strokeColor=none;fillColor=none;align=left;verticalAlign=top;spacingLeft=4;spacingRight=4;overflow=hidden;rotatable=0;points=[[0,0.5],[1,0.5]];portConstraint=eastwest;" vertex="1" parent="3Bn1OTM1BXKK-3qI_rWQ-176">
          <mxGeometry y="78" width="140" height="26" as="geometry" />
        </mxCell>
      </root>
    </mxGraphModel>
  </diagram>
</mxfile>
